<svg xmlns="http://www.w3.org/2000/svg" width="582.934" height="78.989" viewBox="0 0 582.934 78.989" fill="currentColor">
  <g transform="translate(-853 -59)">
    <path transform="translate(926 137.184)" d="M12.348-32.359V-44.015H32.732a7.6,7.6,0,0,0,5.881-2.342,8.988,8.988,0,0,0,2.156-6.333v-4.151a9.447,9.447,0,0,0-2.156-6.52,7.473,7.473,0,0,0-5.881-2.422H12.348V-77.439H32.466A23.713,23.713,0,0,1,43.59-74.991a17.2,17.2,0,0,1,7.21,6.972,21.7,21.7,0,0,1,2.528,10.751v4.524a21.934,21.934,0,0,1-2.555,10.857,17.483,17.483,0,0,1-7.212,7.052,23.342,23.342,0,0,1-11.1,2.475ZM7.025,0V-77.439H19.16V0ZM42.1,0,27.676-34.754,39.7-37.2,56.043,0ZM97.023-77.386V0H84.729V-77.386ZM149.712.8a30.657,30.657,0,0,1-11.23-1.916,19.759,19.759,0,0,1-8.063-5.668,22.682,22.682,0,0,1-4.551-9.181l11.5-5a14.451,14.451,0,0,0,4.763,7.451,12.622,12.622,0,0,0,8.01,2.555q5.429,0,8.409-2.342a7.968,7.968,0,0,0,2.98-6.653V-23.36a7.3,7.3,0,0,0-1.836-5.269,13.307,13.307,0,0,0-4.79-3.087q-2.954-1.171-6.467-2.182-3.566-1.011-7.238-2.342a26.881,26.881,0,0,1-6.706-3.539,16.112,16.112,0,0,1-4.9-5.908,21.251,21.251,0,0,1-1.863-9.553v-2.182q0-9.9,6.121-15.328T151.2-78.184q8.409,0,13.918,4.1t7.531,12.028l-11.017,5.109a14.927,14.927,0,0,0-4.231-7.105,9.717,9.717,0,0,0-6.573-2.422q-5.269,0-8.116,2.235a7.585,7.585,0,0,0-2.847,6.333v2.555a7.518,7.518,0,0,0,2,5.562,14,14,0,0,0,5.242,3.167q3.247,1.171,6.972,2.342,3.459,1.064,6.919,2.368a24.519,24.519,0,0,1,6.307,3.486,15.7,15.7,0,0,1,4.577,5.775,21.334,21.334,0,0,1,1.73,9.234v3.406q0,9.9-6.227,15.355T149.712.8ZM202.72,0V-77.386h12.241L214.908,0Zm5.429,0V-11.709h36.883V0Zm0-32.572V-44.281h32.625v11.709Zm0-33.1V-77.386h36.883v11.709Zm77.6-11.709V0h-12.3V-77.386ZM324.863,0V-11.656h15.009q5.322,0,8.223-2.821t2.847-7.877V-55.032q.053-5.109-2.847-7.9t-8.223-2.794H324.863v-11.66h15.115q11.177,0,17.3,5.828T363.4-55.139v32.892a24.536,24.536,0,0,1-2.714,11.869,18.321,18.321,0,0,1-7.957,7.691A27.81,27.81,0,0,1,339.925,0Zm-7.5,0V-77.386h12.188V0Zm76.32,0V-77.386h12.241L405.866,0Zm5.429,0V-11.709H435.99V0Zm0-32.572V-44.281h32.625v11.709Zm0-33.1V-77.386H435.99v11.709ZM486.017.8a30.657,30.657,0,0,1-11.23-1.916,19.759,19.759,0,0,1-8.063-5.668,22.682,22.682,0,0,1-4.551-9.181l11.5-5a14.452,14.452,0,0,0,4.763,7.451,12.622,12.622,0,0,0,8.01,2.555q5.429,0,8.409-2.342a7.968,7.968,0,0,0,2.98-6.653V-23.36A7.3,7.3,0,0,0,496-28.634a13.307,13.307,0,0,0-4.79-3.087q-2.954-1.171-6.467-2.182-3.566-1.011-7.238-2.342a26.881,26.881,0,0,1-6.706-3.539,16.112,16.112,0,0,1-4.9-5.908,21.251,21.251,0,0,1-1.863-9.553v-2.182q0-9.9,6.121-15.328t17.351-5.429q8.409,0,13.918,4.1t7.531,12.028L497.94-56.947a14.927,14.927,0,0,0-4.231-7.1,9.717,9.717,0,0,0-6.573-2.422q-5.269,0-8.116,2.235a7.585,7.585,0,0,0-2.847,6.333v2.555a7.518,7.518,0,0,0,2,5.562,14,14,0,0,0,5.242,3.167q3.247,1.171,6.972,2.342,3.459,1.064,6.919,2.368a24.52,24.52,0,0,1,6.307,3.486,15.7,15.7,0,0,1,4.577,5.775,21.334,21.334,0,0,1,1.73,9.234v3.406q0,9.9-6.227,15.355T486.017.8Z"/>
    <g transform="translate(853 59.961)">
      <g transform="translate(0 -0.961)">
        <path d="M0,0H15.245V42.224H0Z" transform="translate(15.245 78.988) rotate(180)"/>
        <path d="M0,0H15.245V11.957H0Z" transform="translate(15.245 28.173) rotate(180)"/>
        <path d="M0,0H13.553L35.689,47.545l-17.9,30.986H3.294L22.569,47.3Z" transform="translate(54.372 78.89) rotate(180)"/>
        <path d="M0,0H15.245V7.473H0Z" transform="translate(15.245 7.473) rotate(180)"/>
      </g>
    </g>
  </g>
</svg>
